# xmcd
#
# Track frame offsets:
#	150
#	14839
#	27910
#	49819
#	61420
#	71338
#	80871
#	95121
#	106461
#	122482
#	137370
#	149664
#
# Disc length: 2146 seconds
#
# Revision: 0
# Processed by: cddbd v1.5.2PL0 Copyright (c) Steve Scherf et al.
# Submitted via: EZCDAudioConverter 2.1.7.1
#
DISCID=b108600c
DTITLE=Os Brazões - Os Brazões (1969)
DYEAR=1900
DGENRE=
TTITLE0=Pega A Voga Cabeludo
TTITLE1=Canastra Real
TTITLE2=Módulo Lunar 
TTITLE3=Volks-Volkswagen Blue
TTITLE4=Tão Longe De Mim
TTITLE5=Carolina, Carol Bela
TTITLE6=Feitiço
TTITLE7=Planador
TTITLE8=Espiral
TTITLE9=Gotham City
TTITLE10=Momento B/8
TTITLE11=Que Maravilha
EXTD=
EXTT0=
EXTT1=
EXTT2=
EXTT3=
EXTT4=
EXTT5=
EXTT6=
EXTT7=
EXTT8=
EXTT9=
EXTT10=
EXTT11=
PLAYORDER=
